<svg id="Layer_1" enable-background="new 0 0 512 512" height="512" viewBox="0 0 512 512" width="512" xmlns="http://www.w3.org/2000/svg"><path d="m452 0h-392c-33.084 0-60 26.916-60 60v392c0 33.084 26.916 60 60 60h392c33.084 0 60-26.916 60-60v-392c0-33.084-26.916-60-60-60zm0 472h-392c-11.028 0-20-8.972-20-20v-195.693l86.62 86.621 28.285-28.285-39.643-39.643h75.738v-40h-73.628l37.609-37.608-28.285-28.285-86.696 86.696v-195.803c0-11.028 8.972-20 20-20h392c11.028 0 20 8.972 20 20v195.685l-86.609-86.61-28.285 28.283 37.642 37.642h-73.748v40h75.749l-39.623 39.622 28.285 28.285 86.589-86.59v195.683c0 11.028-8.972 20-20 20z"/></svg>