<svg id="Layer_1" enable-background="new 0 0 512 512" height="512" viewBox="0 0 512 512" width="512" xmlns="http://www.w3.org/2000/svg"><path d="m452 0h-392c-33.084 0-60 26.916-60 60v392c0 33.084 26.916 60 60 60h392c33.084 0 60-26.916 60-60v-392c0-33.084-26.916-60-60-60zm20 452c0 11.028-8.972 20-20 20h-195.684l86.61-86.61-28.284-28.284-37.642 37.641v-73.747h-40v75.749l-39.622-39.622-28.284 28.284 86.588 86.589h-195.682c-11.028 0-20-8.972-20-20v-392c0-11.028 8.972-20 20-20h195.693l-86.621 86.621 28.284 28.284 39.644-39.643v75.738h40v-73.628l37.608 37.608 28.284-28.284-86.696-86.696h195.804c11.028 0 20 8.972 20 20z"/></svg>